<?xml version="1.0" encoding="UTF-8"?>
<svg xmlns="http://www.w3.org/2000/svg" xmlns:xlink="http://www.w3.org/1999/xlink" width="32" height="32" viewBox="0 0 32 32">
<defs>
<clipPath id="clip-0-8d211a1d">
<path clip-rule="nonzero" d="M 1 9 L 22 9 L 22 31 L 1 31 Z M 1 9 "/>
</clipPath>
<clipPath id="clip-1-8d211a1d">
<path clip-rule="nonzero" d="M 11 11 L 31 11 L 31 31 L 11 31 Z M 11 11 "/>
</clipPath>
<clipPath id="clip-2-8d211a1d">
<path clip-rule="nonzero" d="M 3 3 L 30 3 L 30 31 L 3 31 Z M 3 3 "/>
</clipPath>
<clipPath id="clip-3-8d211a1d">
<path clip-rule="nonzero" d="M 14 1 L 18 1 L 18 4 L 14 4 Z M 14 1 "/>
</clipPath>
<clipPath id="clip-4-8d211a1d">
<path clip-rule="nonzero" d="M 27 27 L 31 27 L 31 31 L 27 31 Z M 27 27 "/>
</clipPath>
<clipPath id="clip-5-8d211a1d">
<path clip-rule="nonzero" d="M 1 1 L 5 1 L 5 5 L 1 5 Z M 1 1 "/>
</clipPath>
</defs>
<path fill-rule="nonzero" fill="rgb(96.535993%, 78.199893%, 75.489777%)" fill-opacity="1" d="M 2.425781 13.3125 L 2.546875 13.921875 L 2.671875 14.507812 L 2.796875 15.0625 L 2.917969 15.597656 L 3.042969 16.109375 L 3.164062 16.597656 L 3.289062 17.070312 L 3.410156 17.519531 L 3.535156 17.953125 L 3.65625 18.367188 L 3.78125 18.765625 L 3.902344 19.152344 L 4.027344 19.519531 L 4.152344 19.875 L 4.273438 20.21875 L 4.398438 20.546875 L 4.519531 20.863281 L 4.644531 21.167969 L 4.765625 21.464844 L 4.890625 21.75 L 5.011719 22.023438 L 5.136719 22.289062 L 5.257812 22.542969 L 5.382812 22.792969 L 5.507812 23.03125 L 5.628906 23.261719 L 5.753906 23.484375 L 5.875 23.703125 L 6 23.910156 L 6.121094 24.113281 L 6.246094 24.308594 L 6.367188 24.5 L 6.492188 24.683594 L 6.613281 24.863281 L 6.738281 25.035156 L 6.863281 25.203125 L 6.984375 25.367188 L 7.109375 25.523438 L 7.230469 25.675781 L 7.355469 25.824219 L 7.476562 25.96875 L 7.601562 26.105469 L 7.722656 26.242188 L 7.847656 26.371094 L 7.96875 26.5 L 8.21875 26.742188 L 8.339844 26.859375 L 8.464844 26.96875 L 8.585938 27.078125 L 8.710938 27.183594 L 8.832031 27.285156 L 8.957031 27.386719 L 9.078125 27.480469 L 9.203125 27.574219 L 9.324219 27.664062 L 9.574219 27.835938 L 9.695312 27.914062 L 9.820312 27.992188 L 9.941406 28.070312 L 10.066406 28.144531 L 10.1875 28.214844 L 10.3125 28.28125 L 10.433594 28.347656 L 10.558594 28.410156 L 10.679688 28.472656 L 10.804688 28.53125 L 10.929688 28.585938 L 11.050781 28.640625 L 11.175781 28.695312 L 11.296875 28.746094 L 11.421875 28.792969 L 11.542969 28.839844 L 11.667969 28.882812 L 11.789062 28.925781 L 11.914062 28.964844 L 12.035156 29.003906 L 12.160156 29.042969 L 12.285156 29.078125 L 12.40625 29.109375 L 12.53125 29.144531 L 12.652344 29.175781 L 12.777344 29.203125 L 12.898438 29.230469 L 13.023438 29.257812 L 13.144531 29.28125 L 13.269531 29.304688 L 13.390625 29.328125 L 13.640625 29.367188 L 13.761719 29.386719 L 13.886719 29.40625 L 14.007812 29.421875 L 14.132812 29.4375 L 14.253906 29.453125 L 14.378906 29.46875 L 14.5 29.480469 L 14.75 29.503906 L 14.871094 29.515625 L 14.996094 29.523438 L 15.117188 29.53125 L 15.242188 29.542969 L 15.363281 29.550781 L 15.488281 29.558594 L 15.609375 29.5625 L 15.734375 29.570312 L 15.855469 29.578125 L 16.105469 29.585938 L 16.226562 29.589844 L 16.351562 29.59375 L 16.472656 29.597656 L 16.597656 29.601562 L 16.71875 29.605469 L 16.84375 29.609375 L 16.964844 29.613281 L 17.089844 29.613281 L 17.210938 29.617188 L 17.335938 29.617188 L 17.460938 29.621094 L 17.460938 29.636719 L 2.425781 29.636719 Z M 2.425781 13.3125 "/>
<path fill="none" stroke-width="1.5" stroke-linecap="butt" stroke-linejoin="miter" stroke="rgb(79.607844%, 23.529412%, 20%)" stroke-opacity="1" stroke-dasharray="4.5 3" stroke-miterlimit="2" d="M 2.363281 29.636719 L 2.363281 13.3125 "/>
<g clip-path="url(#clip-0-8d211a1d)">
<path fill="none" stroke-width="1.5" stroke-linecap="butt" stroke-linejoin="miter" stroke="rgb(79.607844%, 23.529412%, 20%)" stroke-opacity="1" stroke-miterlimit="2" d="M 2.425781 13.3125 L 2.546875 13.921875 L 2.671875 14.507812 L 2.796875 15.0625 L 2.917969 15.597656 L 3.042969 16.109375 L 3.164062 16.597656 L 3.289062 17.070312 L 3.410156 17.519531 L 3.535156 17.953125 L 3.65625 18.367188 L 3.78125 18.765625 L 3.902344 19.152344 L 4.027344 19.519531 L 4.152344 19.875 L 4.273438 20.21875 L 4.398438 20.546875 L 4.519531 20.863281 L 4.644531 21.167969 L 4.765625 21.464844 L 4.890625 21.75 L 5.011719 22.023438 L 5.136719 22.289062 L 5.257812 22.542969 L 5.382812 22.792969 L 5.507812 23.03125 L 5.628906 23.261719 L 5.753906 23.484375 L 5.875 23.703125 L 6 23.910156 L 6.121094 24.113281 L 6.246094 24.308594 L 6.367188 24.5 L 6.492188 24.683594 L 6.613281 24.863281 L 6.738281 25.035156 L 6.863281 25.203125 L 6.984375 25.367188 L 7.109375 25.523438 L 7.230469 25.675781 L 7.355469 25.824219 L 7.476562 25.96875 L 7.601562 26.105469 L 7.722656 26.242188 L 7.847656 26.371094 L 7.96875 26.5 L 8.21875 26.742188 L 8.339844 26.859375 L 8.464844 26.96875 L 8.585938 27.078125 L 8.710938 27.183594 L 8.832031 27.285156 L 8.957031 27.386719 L 9.078125 27.480469 L 9.203125 27.574219 L 9.324219 27.664062 L 9.574219 27.835938 L 9.695312 27.914062 L 9.820312 27.992188 L 9.941406 28.070312 L 10.066406 28.144531 L 10.1875 28.214844 L 10.3125 28.28125 L 10.433594 28.347656 L 10.558594 28.410156 L 10.679688 28.472656 L 10.804688 28.53125 L 10.929688 28.585938 L 11.050781 28.640625 L 11.175781 28.695312 L 11.296875 28.746094 L 11.421875 28.792969 L 11.542969 28.839844 L 11.667969 28.882812 L 11.789062 28.925781 L 11.914062 28.964844 L 12.035156 29.003906 L 12.160156 29.042969 L 12.285156 29.078125 L 12.40625 29.109375 L 12.53125 29.144531 L 12.652344 29.175781 L 12.777344 29.203125 L 12.898438 29.230469 L 13.023438 29.257812 L 13.144531 29.28125 L 13.269531 29.304688 L 13.390625 29.328125 L 13.640625 29.367188 L 13.761719 29.386719 L 13.886719 29.40625 L 14.007812 29.421875 L 14.132812 29.4375 L 14.253906 29.453125 L 14.378906 29.46875 L 14.5 29.480469 L 14.75 29.503906 L 14.871094 29.515625 L 14.996094 29.523438 L 15.117188 29.53125 L 15.242188 29.542969 L 15.363281 29.550781 L 15.488281 29.558594 L 15.609375 29.5625 L 15.734375 29.570312 L 15.855469 29.578125 L 16.105469 29.585938 L 16.226562 29.589844 L 16.351562 29.59375 L 16.472656 29.597656 L 16.597656 29.601562 L 16.71875 29.605469 L 16.84375 29.609375 L 16.964844 29.613281 L 17.089844 29.613281 L 17.210938 29.617188 L 17.335938 29.617188 L 17.460938 29.621094 "/>
</g>
<path fill-rule="nonzero" fill="rgb(79.607844%, 23.529412%, 20%)" fill-opacity="1" d="M 6.660156 9.230469 C 6.660156 7.351562 3.839844 7.351562 3.839844 9.230469 C 3.839844 11.113281 6.660156 11.113281 6.660156 9.230469 Z M 6.660156 9.230469 "/>
<path fill-rule="nonzero" fill="rgb(87.416965%, 80.069816%, 91.400284%)" fill-opacity="1" d="M 16.089844 29.457031 L 16.269531 29.425781 L 16.449219 29.386719 L 16.628906 29.34375 L 16.808594 29.296875 L 16.988281 29.242188 L 17.167969 29.179688 L 17.34375 29.109375 L 17.523438 29.035156 L 17.703125 28.949219 L 17.882812 28.855469 L 18.0625 28.753906 L 18.242188 28.640625 L 18.421875 28.519531 L 18.601562 28.386719 L 18.78125 28.246094 L 18.960938 28.089844 L 19.140625 27.925781 L 19.320312 27.75 L 19.5 27.5625 L 19.679688 27.363281 L 19.859375 27.152344 L 20.035156 26.929688 L 20.214844 26.695312 L 20.394531 26.449219 L 20.574219 26.191406 L 20.753906 25.925781 L 20.933594 25.648438 L 21.113281 25.359375 L 21.292969 25.0625 L 21.472656 24.757812 L 21.652344 24.441406 L 21.832031 24.121094 L 22.011719 23.792969 L 22.191406 23.460938 L 22.371094 23.121094 L 22.550781 22.777344 L 22.726562 22.429688 L 23.085938 21.734375 L 23.265625 21.382812 L 23.445312 21.035156 L 23.804688 20.347656 L 23.984375 20.007812 L 24.164062 19.675781 L 24.34375 19.351562 L 24.523438 19.035156 L 24.703125 18.726562 L 24.882812 18.429688 L 25.0625 18.144531 L 25.242188 17.875 L 25.417969 17.613281 L 25.597656 17.371094 L 25.777344 17.144531 L 25.957031 16.933594 L 26.136719 16.742188 L 26.316406 16.566406 L 26.496094 16.414062 L 26.675781 16.28125 L 26.855469 16.167969 L 27.035156 16.078125 L 27.214844 16.011719 L 27.394531 15.964844 L 27.574219 15.945312 L 27.753906 15.945312 L 27.933594 15.96875 L 28.109375 16.019531 L 28.289062 16.089844 L 28.46875 16.1875 L 28.648438 16.304688 L 28.828125 16.445312 L 29.007812 16.609375 L 29.1875 16.796875 L 29.367188 17.003906 L 29.546875 17.230469 L 29.546875 29.636719 L 16.089844 29.636719 Z M 16.089844 29.457031 "/>
<path fill="none" stroke-width="1.5" stroke-linecap="butt" stroke-linejoin="miter" stroke="rgb(58.431375%, 34.509805%, 69.803923%)" stroke-opacity="1" stroke-dasharray="4.5 3" stroke-miterlimit="2" d="M 16 29.636719 L 16 29.457031 "/>
<path fill="none" stroke-width="1.5" stroke-linecap="butt" stroke-linejoin="miter" stroke="rgb(58.431375%, 34.509805%, 69.803923%)" stroke-opacity="1" stroke-dasharray="4.5 3" stroke-miterlimit="2" d="M 29.636719 29.636719 L 29.636719 17.230469 "/>
<g clip-path="url(#clip-1-8d211a1d)">
<path fill="none" stroke-width="1.5" stroke-linecap="butt" stroke-linejoin="miter" stroke="rgb(58.431375%, 34.509805%, 69.803923%)" stroke-opacity="1" stroke-miterlimit="2" d="M 16.089844 29.457031 L 16.269531 29.425781 L 16.449219 29.386719 L 16.628906 29.34375 L 16.808594 29.296875 L 16.988281 29.242188 L 17.167969 29.179688 L 17.34375 29.109375 L 17.523438 29.035156 L 17.703125 28.949219 L 17.882812 28.855469 L 18.0625 28.753906 L 18.242188 28.640625 L 18.421875 28.519531 L 18.601562 28.386719 L 18.78125 28.246094 L 18.960938 28.089844 L 19.140625 27.925781 L 19.320312 27.75 L 19.5 27.5625 L 19.679688 27.363281 L 19.859375 27.152344 L 20.035156 26.929688 L 20.214844 26.695312 L 20.394531 26.449219 L 20.574219 26.191406 L 20.753906 25.925781 L 20.933594 25.648438 L 21.113281 25.359375 L 21.292969 25.0625 L 21.472656 24.757812 L 21.652344 24.441406 L 21.832031 24.121094 L 22.011719 23.792969 L 22.191406 23.460938 L 22.371094 23.121094 L 22.550781 22.777344 L 22.726562 22.429688 L 23.085938 21.734375 L 23.265625 21.382812 L 23.445312 21.035156 L 23.804688 20.347656 L 23.984375 20.007812 L 24.164062 19.675781 L 24.34375 19.351562 L 24.523438 19.035156 L 24.703125 18.726562 L 24.882812 18.429688 L 25.0625 18.144531 L 25.242188 17.875 L 25.417969 17.613281 L 25.597656 17.371094 L 25.777344 17.144531 L 25.957031 16.933594 L 26.136719 16.742188 L 26.316406 16.566406 L 26.496094 16.414062 L 26.675781 16.28125 L 26.855469 16.167969 L 27.035156 16.078125 L 27.214844 16.011719 L 27.394531 15.964844 L 27.574219 15.945312 L 27.753906 15.945312 L 27.933594 15.96875 L 28.109375 16.019531 L 28.289062 16.089844 L 28.46875 16.1875 L 28.648438 16.304688 L 28.828125 16.445312 L 29.007812 16.609375 L 29.1875 16.796875 L 29.367188 17.003906 L 29.546875 17.230469 "/>
</g>
<path fill-rule="nonzero" fill="rgb(58.431375%, 34.509805%, 69.803923%)" fill-opacity="1" d="M 26.90625 12.519531 C 26.90625 10.640625 24.085938 10.640625 24.085938 12.519531 C 24.085938 14.402344 26.90625 14.402344 26.90625 12.519531 Z M 26.90625 12.519531 "/>
<path fill-rule="nonzero" fill="rgb(77.437073%, 88.103276%, 75.507712%)" fill-opacity="1" d="M 7.25 29.617188 L 7.519531 29.605469 L 7.609375 29.597656 L 7.699219 29.59375 L 8.058594 29.5625 L 8.238281 29.539062 L 8.328125 29.523438 L 8.414062 29.507812 L 8.503906 29.492188 L 8.683594 29.453125 L 8.773438 29.429688 L 8.863281 29.402344 L 9.042969 29.339844 L 9.132812 29.304688 L 9.3125 29.21875 L 9.402344 29.171875 L 9.492188 29.117188 L 9.582031 29.058594 L 9.671875 28.996094 L 9.761719 28.925781 L 9.847656 28.847656 L 9.9375 28.765625 L 10.027344 28.675781 L 10.117188 28.578125 L 10.207031 28.472656 L 10.296875 28.355469 L 10.386719 28.234375 L 10.476562 28.101562 L 10.566406 27.957031 L 10.65625 27.804688 L 10.746094 27.640625 L 10.835938 27.464844 L 10.925781 27.277344 L 11.015625 27.078125 L 11.105469 26.867188 L 11.195312 26.644531 L 11.28125 26.40625 L 11.371094 26.15625 L 11.460938 25.894531 L 11.550781 25.617188 L 11.640625 25.324219 L 11.730469 25.019531 L 11.820312 24.703125 L 11.910156 24.367188 L 12 24.019531 L 12.089844 23.660156 L 12.179688 23.285156 L 12.269531 22.898438 L 12.359375 22.5 L 12.449219 22.085938 L 12.539062 21.664062 L 12.628906 21.226562 L 12.714844 20.78125 L 12.804688 20.328125 L 12.894531 19.863281 L 12.984375 19.390625 L 13.074219 18.910156 L 13.164062 18.425781 L 13.253906 17.9375 L 13.34375 17.441406 L 13.433594 16.949219 L 13.523438 16.449219 L 13.613281 15.953125 L 13.792969 14.96875 L 13.882812 14.484375 L 13.972656 14.003906 L 14.0625 13.53125 L 14.152344 13.070312 L 14.238281 12.617188 L 14.328125 12.175781 L 14.417969 11.75 L 14.507812 11.339844 L 14.597656 10.945312 L 14.6875 10.570312 L 14.777344 10.214844 L 14.867188 9.878906 L 14.957031 9.566406 L 15.046875 9.273438 L 15.136719 9.007812 L 15.226562 8.765625 L 15.316406 8.550781 L 15.40625 8.359375 L 15.496094 8.199219 L 15.585938 8.066406 L 15.671875 7.960938 L 15.761719 7.882812 L 15.851562 7.835938 L 15.941406 7.816406 L 16.03125 7.828125 L 16.121094 7.867188 L 16.210938 7.9375 L 16.300781 8.035156 L 16.390625 8.160156 L 16.480469 8.3125 L 16.570312 8.492188 L 16.660156 8.695312 L 16.75 8.925781 L 16.839844 9.179688 L 16.929688 9.460938 L 17.019531 9.761719 L 17.105469 10.082031 L 17.195312 10.421875 L 17.285156 10.785156 L 17.375 11.160156 L 17.464844 11.554688 L 17.554688 11.964844 L 17.644531 12.386719 L 17.734375 12.820312 L 17.824219 13.261719 L 17.914062 13.714844 L 18.003906 14.175781 L 18.09375 14.644531 L 18.183594 15.117188 L 18.453125 16.546875 L 18.542969 17.027344 L 18.628906 17.503906 L 18.808594 18.449219 L 18.898438 18.914062 L 18.988281 19.375 L 19.078125 19.828125 L 19.167969 20.273438 L 19.257812 20.710938 L 19.347656 21.136719 L 19.4375 21.558594 L 19.527344 21.964844 L 19.617188 22.363281 L 19.707031 22.75 L 19.796875 23.121094 L 19.886719 23.484375 L 19.976562 23.835938 L 20.0625 24.171875 L 20.152344 24.496094 L 20.242188 24.808594 L 20.332031 25.109375 L 20.421875 25.394531 L 20.511719 25.671875 L 20.601562 25.933594 L 20.691406 26.179688 L 20.78125 26.417969 L 20.871094 26.644531 L 20.960938 26.855469 L 21.050781 27.058594 L 21.140625 27.246094 L 21.230469 27.425781 L 21.320312 27.597656 L 21.410156 27.753906 L 21.496094 27.902344 L 21.585938 28.042969 L 21.675781 28.171875 L 21.765625 28.292969 L 21.855469 28.40625 L 21.945312 28.511719 L 22.035156 28.609375 L 22.125 28.703125 L 22.214844 28.785156 L 22.304688 28.863281 L 22.394531 28.933594 L 22.484375 29 L 22.574219 29.0625 L 22.664062 29.117188 L 22.753906 29.167969 L 22.84375 29.214844 L 22.929688 29.257812 L 23.019531 29.296875 L 23.109375 29.332031 L 23.199219 29.363281 L 23.378906 29.417969 L 23.558594 29.464844 L 23.648438 29.484375 L 23.917969 29.53125 L 24.097656 29.554688 L 24.367188 29.578125 L 24.453125 29.585938 L 24.542969 29.59375 L 24.722656 29.601562 L 24.8125 29.609375 L 24.902344 29.613281 L 24.992188 29.613281 L 24.992188 29.636719 L 7.25 29.636719 Z M 7.25 29.617188 "/>
<g clip-path="url(#clip-2-8d211a1d)">
<path fill="none" stroke-width="1.5" stroke-linecap="butt" stroke-linejoin="miter" stroke="rgb(21.960784%, 59.607846%, 14.901961%)" stroke-opacity="1" stroke-miterlimit="2" d="M 7.25 29.617188 L 7.519531 29.605469 L 7.609375 29.597656 L 7.699219 29.59375 L 8.058594 29.5625 L 8.238281 29.539062 L 8.328125 29.523438 L 8.414062 29.507812 L 8.503906 29.492188 L 8.683594 29.453125 L 8.773438 29.429688 L 8.863281 29.402344 L 9.042969 29.339844 L 9.132812 29.304688 L 9.3125 29.21875 L 9.402344 29.171875 L 9.492188 29.117188 L 9.582031 29.058594 L 9.671875 28.996094 L 9.761719 28.925781 L 9.847656 28.847656 L 9.9375 28.765625 L 10.027344 28.675781 L 10.117188 28.578125 L 10.207031 28.472656 L 10.296875 28.355469 L 10.386719 28.234375 L 10.476562 28.101562 L 10.566406 27.957031 L 10.65625 27.804688 L 10.746094 27.640625 L 10.835938 27.464844 L 10.925781 27.277344 L 11.015625 27.078125 L 11.105469 26.867188 L 11.195312 26.644531 L 11.28125 26.40625 L 11.371094 26.15625 L 11.460938 25.894531 L 11.550781 25.617188 L 11.640625 25.324219 L 11.730469 25.019531 L 11.820312 24.703125 L 11.910156 24.367188 L 12 24.019531 L 12.089844 23.660156 L 12.179688 23.285156 L 12.269531 22.898438 L 12.359375 22.5 L 12.449219 22.085938 L 12.539062 21.664062 L 12.628906 21.226562 L 12.714844 20.78125 L 12.804688 20.328125 L 12.894531 19.863281 L 12.984375 19.390625 L 13.074219 18.910156 L 13.164062 18.425781 L 13.253906 17.9375 L 13.34375 17.441406 L 13.433594 16.949219 L 13.523438 16.449219 L 13.613281 15.953125 L 13.792969 14.96875 L 13.882812 14.484375 L 13.972656 14.003906 L 14.0625 13.53125 L 14.152344 13.070312 L 14.238281 12.617188 L 14.328125 12.175781 L 14.417969 11.75 L 14.507812 11.339844 L 14.597656 10.945312 L 14.6875 10.570312 L 14.777344 10.214844 L 14.867188 9.878906 L 14.957031 9.566406 L 15.046875 9.273438 L 15.136719 9.007812 L 15.226562 8.765625 L 15.316406 8.550781 L 15.40625 8.359375 L 15.496094 8.199219 L 15.585938 8.066406 L 15.671875 7.960938 L 15.761719 7.882812 L 15.851562 7.835938 L 15.941406 7.816406 L 16.03125 7.828125 L 16.121094 7.867188 L 16.210938 7.9375 L 16.300781 8.035156 L 16.390625 8.160156 L 16.480469 8.3125 L 16.570312 8.492188 L 16.660156 8.695312 L 16.75 8.925781 L 16.839844 9.179688 L 16.929688 9.460938 L 17.019531 9.761719 L 17.105469 10.082031 L 17.195312 10.421875 L 17.285156 10.785156 L 17.375 11.160156 L 17.464844 11.554688 L 17.554688 11.964844 L 17.644531 12.386719 L 17.734375 12.820312 L 17.824219 13.261719 L 17.914062 13.714844 L 18.003906 14.175781 L 18.09375 14.644531 L 18.183594 15.117188 L 18.453125 16.546875 L 18.542969 17.027344 L 18.628906 17.503906 L 18.808594 18.449219 L 18.898438 18.914062 L 18.988281 19.375 L 19.078125 19.828125 L 19.167969 20.273438 L 19.257812 20.710938 L 19.347656 21.136719 L 19.4375 21.558594 L 19.527344 21.964844 L 19.617188 22.363281 L 19.707031 22.75 L 19.796875 23.121094 L 19.886719 23.484375 L 19.976562 23.835938 L 20.0625 24.171875 L 20.152344 24.496094 L 20.242188 24.808594 L 20.332031 25.109375 L 20.421875 25.394531 L 20.511719 25.671875 L 20.601562 25.933594 L 20.691406 26.179688 L 20.78125 26.417969 L 20.871094 26.644531 L 20.960938 26.855469 L 21.050781 27.058594 L 21.140625 27.246094 L 21.230469 27.425781 L 21.320312 27.597656 L 21.410156 27.753906 L 21.496094 27.902344 L 21.585938 28.042969 L 21.675781 28.171875 L 21.765625 28.292969 L 21.855469 28.40625 L 21.945312 28.511719 L 22.035156 28.609375 L 22.125 28.703125 L 22.214844 28.785156 L 22.304688 28.863281 L 22.394531 28.933594 L 22.484375 29 L 22.574219 29.0625 L 22.664062 29.117188 L 22.753906 29.167969 L 22.84375 29.214844 L 22.929688 29.257812 L 23.019531 29.296875 L 23.109375 29.332031 L 23.199219 29.363281 L 23.378906 29.417969 L 23.558594 29.464844 L 23.648438 29.484375 L 23.917969 29.53125 L 24.097656 29.554688 L 24.367188 29.578125 L 24.453125 29.585938 L 24.542969 29.59375 L 24.722656 29.601562 L 24.8125 29.609375 L 24.902344 29.613281 L 24.992188 29.613281 "/>
</g>
<g clip-path="url(#clip-3-8d211a1d)">
<path fill-rule="nonzero" fill="rgb(21.960784%, 59.607846%, 14.901961%)" fill-opacity="1" d="M 17.421875 2.363281 C 17.421875 0.484375 14.601562 0.484375 14.601562 2.363281 C 14.601562 4.242188 17.421875 4.242188 17.421875 2.363281 Z M 17.421875 2.363281 "/>
</g>
<path fill="none" stroke-width="1.5" stroke-linecap="butt" stroke-linejoin="miter" stroke="rgb(0%, 0%, 0%)" stroke-opacity="1" stroke-miterlimit="2" d="M 2.363281 2.636719 L 2.363281 29.636719 L 29.363281 29.636719 "/>
<g clip-path="url(#clip-4-8d211a1d)">
<path fill-rule="nonzero" fill="rgb(0%, 0%, 0%)" fill-opacity="1" d="M 32.273438 29.636719 L 27.910156 27.453125 L 27.910156 31.820312 Z M 32.273438 29.636719 "/>
</g>
<g clip-path="url(#clip-5-8d211a1d)">
<path fill-rule="nonzero" fill="rgb(0%, 0%, 0%)" fill-opacity="1" d="M 2.363281 -0.273438 L 0.179688 4.089844 L 4.546875 4.089844 Z M 2.363281 -0.273438 "/>
</g>
</svg>
